<svg width="22" height="22" viewBox="0 0 22 22" fill="none" xmlns="http://www.w3.org/2000/svg">
<path d="M3.08086 1.75977C1.87258 1.75977 0.880859 2.75148 0.880859 3.95977V14.5198C0.880859 15.728 1.87258 16.7198 3.08086 16.7198H4.88211C4.94227 17.2491 4.93539 17.739 4.79961 18.1498C4.63289 18.6551 4.3218 19.0796 3.74086 19.4285C3.57758 19.5316 3.50195 19.7293 3.5518 19.9149C3.60164 20.1005 3.76836 20.2329 3.96086 20.2398C5.82742 20.2398 7.96727 19.2652 9.04836 16.7198H18.9209C20.1291 16.7198 21.1209 15.728 21.1209 14.5198V3.95977C21.1209 2.75148 20.1291 1.75977 18.9209 1.75977H3.08086ZM3.08086 2.63977H18.9209C19.6496 2.63977 20.2409 3.23102 20.2409 3.95977V14.5198C20.2409 15.2485 19.6496 15.8398 18.9209 15.8398H8.80086C8.61695 15.8398 8.45195 15.9549 8.38836 16.1285C7.7043 17.9951 6.48227 18.8837 5.21211 19.2085C5.38398 18.9627 5.54727 18.7032 5.63836 18.4248C5.86695 17.7304 5.84805 16.9707 5.70711 16.1973C5.66758 15.9927 5.49055 15.8432 5.28086 15.8398H3.08086C2.35211 15.8398 1.76086 15.2485 1.76086 14.5198V3.95977C1.76086 3.23102 2.35211 2.63977 3.08086 2.63977Z" fill="#212529"/>
</svg>
